<?xml version="1.0" encoding="utf-8"?>
<!-- Generator: Adobe Illustrator 26.4.1, SVG Export Plug-In . SVG Version: 6.00 Build 0)  -->
<svg version="1.1" id="Capa_1" xmlns="http://www.w3.org/2000/svg" xmlns:xlink="http://www.w3.org/1999/xlink" x="0px" y="0px"
	 viewBox="0 0 7023.86 3100" style="enable-background:new 0 0 7023.86 3100;" xml:space="preserve">
<style type="text/css">
	.st0{fill:#74BA63;}
	.st1{fill:#C3B4CA;}
	.st2{fill:#E61F46;}
	.st3{fill:url(#SVGID_1_);}
	.st4{fill:url(#SVGID_00000123404145402533260180000004315774073141408145_);}
	.st5{fill:#B37C9F;}
	.st6{fill:#FFFFFF;}
	.st7{fill:#FBF4B2;}
	.st8{fill:#FAF4B3;}
	.st9{fill:none;stroke:#FAF4B3;stroke-miterlimit:10;}
	.st10{fill:url(#SVGID_00000044873978523310397300000003970250229639018393_);}
	.st11{fill:url(#SVGID_00000183229735620289374680000014402455863329869979_);}
	.st12{fill:#308835;}
	.st13{fill:#6CB63F;}
	.st14{fill:#175427;}
	.st15{fill:#C4C1DC;}
	.st16{fill:#463780;}
	.st17{fill:url(#SVGID_00000168104430395656696900000016136788112586052483_);}
	.st18{fill:url(#SVGID_00000106115091710460000560000007536376515585041844_);}
	.st19{fill:url(#SVGID_00000180338998906242315400000014905908417194674365_);}
	.st20{fill:#9B9B9A;}
	.st21{fill:#925C74;}
	.st22{opacity:0.47;}
</style>
<g>
	<g>
		<path class="st0" d="M1948.45,1610.64c2.35,10.69,4.69,21.38,7.04,32.07c0.3,1.35,3.2,0.6,2.9-0.78
			c-2.35-10.69-4.69-21.38-7.04-32.07C1951.05,1608.52,1948.14,1609.27,1948.45,1610.64L1948.45,1610.64z"/>
	</g>
</g>
<g>
	<g>
		<path class="st1" d="M2107.7,1779.21c0.54,0,1.64-0.21,1.93-0.74c0.3-0.55-0.26-0.66-0.74-0.66c-0.54,0-1.64,0.21-1.93,0.74
			C2106.67,1779.1,2107.23,1779.21,2107.7,1779.21L2107.7,1779.21z"/>
	</g>
</g>
<g>
	<g>
		<path class="st2" d="M4333.27,1293.47c0.84,0,0.87-0.24,0.08-0.51c-1.08-0.36-2.35-0.56-3.49-0.56c-0.84,0-0.87,0.24-0.08,0.51
			C4330.85,1293.28,4332.13,1293.47,4333.27,1293.47L4333.27,1293.47z"/>
	</g>
</g>
<g>
	<linearGradient id="SVGID_1_" gradientUnits="userSpaceOnUse" x1="3523.8201" y1="587.5108" x2="3538.0713" y2="1871.5758">
		<stop  offset="0.0237" style="stop-color:#8ED1E2"/>
		<stop  offset="0.3358" style="stop-color:#6CC7E5"/>
		<stop  offset="0.662" style="stop-color:#47B6E2"/>
		<stop  offset="1" style="stop-color:#32A3DA"/>
	</linearGradient>
	<path class="st3" d="M7072.43,1932.97c-302.67-20.87-707.68-46.58-1186.1-70.47c-553.92-27.66-1236.07-61.72-2034.59-67.95
		c-726.61-5.67-865.93,17.03-2382.46,47.82c-629.98,12.79-1146.13,19.84-1486.33,23.81c0-620.39,0-1240.78,0-1861.18h7089.49
		C7072.43,647.66,7072.43,1290.31,7072.43,1932.97z"/>
	
		<linearGradient id="SVGID_00000177483711044097457930000015920871179115127223_" gradientUnits="userSpaceOnUse" x1="3531.5874" y1="1311.9827" x2="3525.0989" y2="3225.4763">
		<stop  offset="0.0237" style="stop-color:#849E76"/>
		<stop  offset="0.2911" style="stop-color:#A0C286"/>
		<stop  offset="0.4448" style="stop-color:#A6C589"/>
		<stop  offset="0.6307" style="stop-color:#C6DC95"/>
		<stop  offset="0.9749" style="stop-color:#F2F3CB"/>
	</linearGradient>
	<path style="fill:url(#SVGID_00000177483711044097457930000015920871179115127223_);" d="M7072.43,3100.34H-17.06
		c0-424.65,0-849.3,0-1273.95c323.21-4.07,804.29-10.77,1388.07-21.38c1173.28-21.32,1846.2-41.81,2191.23-48.83
		c806.38-16.42,1975.62-3.19,3510.19,135.58C7072.43,2294.62,7072.43,2697.48,7072.43,3100.34z"/>
	<g>
		<g>
			<path class="st5" d="M1052.19,763.34c7.35-12.2,21.52-19.78,21.68-35.54c0.14-13.8-9.45-26.17-20.5-33.46
				c-14.01-9.24-31.01-12.72-47.23-15.83c-19.04-3.65-38.08-7.32-57.08-11.2c-76.06-15.55-151.78-33.28-226.62-53.94
				c-32.11-8.86-65.62-19.13-91.95-40.4c-24.39-19.7-42.45-48.72-50.29-79.01c-7.08-27.34-5.56-57.98,11.6-81.41
				c9.85-13.45,24-22.65,38.79-29.86c16.13-7.86,33.15-14.08,50-20.21c68.44-24.93,139.58-42.37,211.7-52.49
				c72.52-10.17,146.15-12.84,219.21-7.92c34.88,2.35,74.24,3.61,104.38,23.47c12.87,8.48,23.75,20.75,26.66,36.27
				c3.13,16.63-3.28,33.7-12.58,47.27c-10.03,14.63-24.07,26.24-38.06,36.9c-13.4,10.21-27.19,19.89-40.13,30.69
				c-23.55,19.66-46.61,43.72-54.5,74.26c-8.45,32.7,3.2,66.74,21.31,94.03c17.01,25.64,40.28,47.43,67.82,61.35
				c28.45,14.39,61.21,19.92,92.73,14.61c15.64-2.64,30.84-8.16,44.17-16.82c13.18-8.57,24.27-19.83,33.84-32.22
				c9.21-11.91,17.04-24.78,24.76-37.68c1.66-2.77-2.66-5.28-4.32-2.52c-16.32,27.27-33.95,55.35-62.33,71.47
				c-28.85,16.39-64.81,18.31-96.51,10.14c-31.24-8.06-59.03-26.62-80.32-50.64c-22.05-24.88-39.91-57.56-38.97-91.65
				c0.92-33.17,21.98-60.32,45.51-81.78c25.09-22.89,55.72-39.64,78.86-64.65c20.68-22.36,34.34-56.4,15.03-84
				c-19.03-27.19-54.29-35.84-85.3-39.71c-36.45-4.55-73.47-6.06-110.18-6.16c-36.74-0.1-73.49,1.7-110.06,5.37
				c-71.93,7.23-143.17,21.62-212.13,43.36c-17.25,5.44-34.35,11.33-51.28,17.69c-16.19,6.08-32.62,12.18-47.9,20.34
				c-13.68,7.31-26.14,16.74-35.18,29.47c-7.91,11.14-12.72,24.28-14.62,37.77c-3.93,27.8,3.55,56.57,16.85,80.97
				c7.84,14.38,17.53,27.9,29.35,39.29c11.76,11.34,25.59,20.23,40.28,27.29c31.26,15.03,65.64,23,99.04,31.71
				c37.78,9.86,75.71,19.1,113.79,27.74c37.91,8.6,75.95,16.59,114.11,23.97c17.31,3.35,35.33,5.67,51.84,12.15
				c14.21,5.58,29.28,16.47,31.26,32.84c1.92,15.91-13.6,24.15-20.84,36.16C1046.21,763.58,1050.53,766.1,1052.19,763.34
				L1052.19,763.34z"/>
		</g>
	</g>
	<g>
		<g>
			<path class="st5" d="M1378.09,637.23c0.9-14.31,10.35-26.4,18.25-37.72c7.86-11.27,15.78-22.49,23.88-33.59
				c16.63-22.77,34.08-44.99,53.24-65.72c36.08-39.04,78.7-72.5,127.95-93.23c25.22-10.61,51.81-17.55,79.02-20.46
				c15.12-1.62,30.33-2.25,45.53-2.7c13.46-0.4,26.94-0.59,40.39,0.06c26.28,1.27,53.38,5.83,76,20.04
				c19.41,12.19,33.46,30.71,42.77,51.44c9.23,20.53,13.97,42.85,17.09,65.04c3.91,27.88,5.77,56.05,5.68,84.2
				c-0.18,56.31-8.33,112.51-23.9,166.62c-7.89,27.43-17.67,54.33-29.26,80.42c-10.7,24.08-21.7,50.24-44.61,65.16
				c-20.53,13.37-45.72,18.06-69.78,19.79c-28.6,2.06-57.59,0.47-86.09-2.33c-60.67-5.96-120.24-19.62-179.39-33.87
				c-29.86-7.2-59.79-14.21-89.29-22.8c-28.66-8.35-56.74-18.54-84.27-30.04c-13.43-5.61-26.73-11.54-39.94-17.67
				c-2.9-1.35-5.44,2.96-2.52,4.32c27.42,12.73,55.28,24.55,83.76,34.72c29.34,10.48,59.34,18.73,89.57,26.23
				c60.53,15,121.31,30.18,183.06,39.28c30.67,4.52,61.59,7.49,92.6,7.92c25.82,0.36,52.3-0.81,77.13-8.57
				c11.48-3.59,22.65-8.66,32.31-15.89c10.34-7.74,18.31-17.75,24.73-28.9c7.21-12.53,13.17-25.87,18.93-39.11
				c5.69-13.06,10.95-26.29,15.74-39.7c19.42-54.28,31.27-111.26,34.97-168.8c1.85-28.88,1.64-57.89-0.68-86.74
				c-2.02-25.12-5.04-50.54-11.85-74.86c-6.11-21.78-15.6-42.97-30.65-60.08c-16.63-18.91-39.17-30.49-63.54-35.96
				c-26.87-6.03-54.72-5.7-82.08-4.83c-29.67,0.94-59.22,3.19-87.94,11.14c-51.13,14.14-97.48,42.63-136.47,78.22
				c-42.58,38.87-76.58,85.79-109.33,132.93c-7.57,10.89-15.14,22.42-16,36.03C1372.89,640.45,1377.89,640.43,1378.09,637.23
				L1378.09,637.23z"/>
		</g>
	</g>
	<g>
		<g>
			<path class="st5" d="M1027.83,923.28c29.91,53.07,2.01,114.18-22.26,163.35c-12.87,26.06-26.16,52.41-32.99,80.83
				c-6.67,27.78-6.06,56.92,1.88,84.38c7.99,27.65,23.25,51.94,42.2,73.39c10.03,11.35,20.9,21.93,32,32.23
				c10.77,9.99,21.49,20.29,33.08,29.35c23.61,18.46,52.96,25.08,81.76,30.87c31.3,6.29,63.01,10.58,94.85,12.86
				c32.23,2.31,65.23,3.44,97.45,0.4c15.51-1.46,30.48-4.89,45.13-10.16c14.33-5.16,28.32-11.33,42.29-17.39
				c54.05-23.46,108.21-50.27,152.11-90.29c19.43-17.71,36.81-38.03,49.86-60.92c13.34-23.4,23.06-50.67,22.55-77.89
				c-0.52-28.09-14.78-51.73-34.36-70.97c-20.34-19.99-44.76-36-69.06-50.72c-51.56-31.23-106.82-55.65-159.33-85.16
				c-47.33-26.6-94-57.94-128.11-100.84c-7.87-9.89-14.91-20.43-21.01-31.49c-1.56-2.82-5.88-0.3-4.32,2.52
				c25.42,46.04,66.63,81.02,110.09,109.46c48.53,31.76,101.4,55.92,152.54,83.03c26.05,13.81,51.76,28.4,76.08,45.12
				c22.41,15.41,45.29,32.83,59.78,56.31c30.25,49.03,1.23,110.99-31.88,150.62c-36.75,43.99-86.82,74.28-137.91,98.9
				c-13.43,6.47-27.03,12.59-40.71,18.51c-13.97,6.05-27.96,12.23-42.35,17.24c-15.19,5.29-30.69,8.4-46.74,9.57
				c-15.77,1.15-31.66,1.23-47.47,1.03c-31.98-0.4-63.95-2.81-95.61-7.29c-15.78-2.23-31.49-4.97-47.09-8.2
				c-14.42-2.99-28.9-6.2-42.78-11.2c-14.06-5.06-26.53-12.42-37.91-22.09c-11.24-9.55-22.1-19.65-32.82-29.78
				c-21.08-19.93-41.36-41.45-54.98-67.31c-13.39-25.4-20.02-54.22-18.7-82.93c1.33-28.97,11.57-56.36,23.67-82.4
				c23.04-49.55,55.61-101.19,47.8-158.32c-1.79-13.08-5.94-25.63-12.42-37.13C1030.57,917.95,1026.25,920.47,1027.83,923.28
				L1027.83,923.28z"/>
		</g>
	</g>
	<g>
		<g>
			<path class="st5" d="M1028.1,912.6c-55.35,18.17-110.64,36.65-164.83,58.09c-52.83,20.91-104.6,44.68-153.56,73.61
				c-46.5,27.47-91.51,58.83-143.08,76.28c-28.05,9.49-57.3,13.92-86.71,16.51c-14.52,1.28-29.08,2.24-43.63,3.09
				c-13.37,0.78-26.82,1.26-40.17-0.06c-12.95-1.28-25.94-4.49-37.17-11.24c-11.35-6.81-20.39-16.87-28.17-27.44
				c-14.28-19.4-24.43-41.66-29.74-65.15c-10.58-46.8-1.26-96.98,25.66-136.73c14.94-22.06,34.84-40.53,55.97-56.57
				c10.78-8.18,21.97-15.81,33.37-23.1c11.64-7.45,23.05-15.32,36.87-17.9c14.97-2.79,30.52-3.57,45.68-4.88
				c15.14-1.31,30.3-2.41,45.47-3.35c30.61-1.89,61.25-3.12,91.9-3.99c61.16-1.73,122.35-2.04,183.52-3.36
				c61.03-1.31,122.08-3.62,182.86-9.39c14.88-1.41,29.74-3.04,44.57-4.89c3.15-0.39,3.19-5.4,0-5
				c-61.95,7.73-124.32,11.3-186.69,13.22c-62.32,1.92-124.68,2.23-187.01,3.51c-62.47,1.28-124.96,3.53-187.19,9.37
				c-7.63,0.72-15.25,1.47-22.86,2.31c-6.82,0.76-13.73,1.61-20.27,3.8c-12.83,4.29-24.46,12.94-35.68,20.31
				c-22.64,14.86-44.58,31.26-63.31,50.91c-17.31,18.16-31.25,39.06-40.27,62.53c-8.51,22.15-12.5,46.05-11.8,69.76
				c0.7,23.68,6.09,47.08,15.76,68.7c4.96,11.09,11.08,21.66,18.22,31.48c7.51,10.34,15.99,20.14,26.54,27.49
				c21.81,15.21,49.8,16.18,75.43,15.07c29.61-1.28,59.48-3.3,88.77-7.87c28.29-4.41,55.47-12.56,81.58-24.28
				c25.08-11.26,48.84-25.19,72.3-39.47c24.02-14.62,47.88-29.46,72.65-42.79c25.47-13.7,51.59-26.15,78.1-37.7
				c54.53-23.74,110.67-43.6,167.04-62.46c13.73-4.59,27.47-9.13,41.23-13.64C1032.48,916.43,1031.17,911.6,1028.1,912.6
				L1028.1,912.6z"/>
		</g>
	</g>
	<g>
		<g>
			<path class="st5" d="M1125.93,774.75c-8.96,3.16-17.91,6.32-26.87,9.48c-8.55,3.02-17.21,5.82-25.64,9.16
				c-7.66,3.04-14.63,7.03-20.18,13.21c-5.08,5.66-8.83,12.32-12.4,18.99c-3.94,7.39-8.36,15.43-7.83,24.09
				c0.42,6.8,3.74,12.95,8.41,17.8c11.28,11.71,28.01,15.15,43.68,15.18c8.74,0.02,17.45-0.92,26.12-1.91
				c7.38-0.84,14.75-1.8,22.08-3.03c14.32-2.41,28.6-5.87,41.83-12.01c12.82-5.95,24.26-14.79,31.76-26.91
				c8.17-13.2,11.22-28.68,13.73-43.78c0.65-3.89,1.68-8.19,0.21-12.02c-1.43-3.72-4.67-6.05-8.21-7.58
				c-7.65-3.31-16-5.4-24.15-7.07c-16.96-3.46-34.47-4.32-51.68-2.43c-4.22,0.47-8.42,1.08-12.59,1.86
				c-1.33,0.25-2.08,1.85-1.75,3.08c0.38,1.39,1.74,1.99,3.08,1.75c16.14-3,32.74-3.44,49.04-1.49c8.11,0.97,16.15,2.61,24,4.83
				c3.77,1.07,7.57,2.2,11.21,3.66c2.85,1.14,5.95,2.82,6.63,6.07c0.69,3.31-0.47,7.14-1.02,10.4c-0.61,3.61-1.27,7.21-2.03,10.79
				c-1.51,7.12-3.41,14.25-6.36,20.93c-2.91,6.59-6.77,12.72-11.76,17.94c-4.35,4.55-9.36,8.35-14.78,11.53
				c-11.65,6.85-24.79,10.81-37.94,13.61c-14.33,3.05-29,4.88-43.59,6.12c-15.43,1.31-32.27,1.44-45.99-6.78
				c-5.38-3.22-10.23-7.65-13.01-13.36c-3.08-6.33-2.07-13.14,0.57-19.45c1.54-3.68,3.5-7.19,5.38-10.7
				c1.7-3.15,3.44-6.28,5.38-9.29c3.94-6.11,8.81-11.56,15.14-15.26c7.03-4.1,15.01-6.45,22.65-9.14
				c8.56-3.02,17.13-6.04,25.69-9.06c4.16-1.47,8.33-2.94,12.49-4.41c1.27-0.45,2.12-1.71,1.75-3.08
				C1128.67,775.27,1127.21,774.3,1125.93,774.75L1125.93,774.75z"/>
		</g>
	</g>
	<g>
		<g>
			<g>
				<path class="st6" d="M3342.25,567.3c16.73-6.28,35.14-25.33,26.83-44.61c-4.74-10.99-16.65-16.15-26.94-20.57
					c-14.43-6.21-28.89-12.35-43.34-18.52c-30.27-12.94-60.53-25.88-90.8-38.81c-28.32-12.1-57.07-23.51-84.89-36.71
					c-25.06-11.9-50.78-27.28-64.46-52.4c-11.76-21.6-9.05-45.83,6.45-64.69c15.25-18.54,37.85-30.51,59.94-38.9
					c26.19-9.95,54.25-15.51,81.94-19.27c60.39-8.2,122.48-5.2,181.71,9.23c47.27,11.51,104.99,33.07,122.75,83.2
					c9.5,26.81,7.18,55.84,11.72,83.56c3.44,21.02,13.01,41.54,28.73,56.19c15.83,14.75,37.36,21.43,58.62,16.28
					c22.23-5.38,39.28-22.35,52.82-39.89c18.1-23.46,33.99-48.83,50.73-73.27c15.74-22.99,30.55-50.39,54.31-66.16
					c25.11-16.66,58.95-19.98,88.31-21.18c30.8-1.25,62.02,1.79,91.8,9.88c25.61,6.97,51.08,18.22,69.96,37.36
					c15.16,15.36,25.53,35.02,29.99,56.11c4.26,20.14,2.96,41.37-3.94,60.77c-7.96,22.39-23.38,40.44-42.73,53.93
					c-22.56,15.73-48.5,25.77-74.14,35.25c-30.18,11.16-60.45,22.06-90.62,33.24c-17.21,6.38-41.99,15.87-46.49,36.16
					c-5.43,24.52,22.54,38.93,42.48,41.6c14.18,1.9,28.53,0.46,42.71-0.69c16.29-1.33,32.58-2.65,48.87-3.98
					c30.55-2.49,61.21-5.93,91.86-6.63c27.44-0.63,56.3,1.51,80.94,14.69c21.88,11.7,37.56,31.42,47.21,54.01
					c9.24,21.61,13.7,45.55,14.83,68.95c1.19,24.66-1.98,50.43-14.79,71.99c-28.26,47.57-91.71,53.44-141.55,53.49
					c-28.91,0.03-58.27-2.71-85.66-12.49c-23.08-8.24-43.43-22.08-60.64-39.43c-31.18-31.45-51.82-71.29-79.07-105.87
					c-13.16-16.71-27.93-32.01-45.19-44.51c-1.14-0.83-2.73-0.13-3.42,0.9c-18.26,27.13-30.7,58.04-35.5,90.43
					c-4.83,32.61-1.25,64.54,7.79,96.07c9.58,33.44,23.61,67.8,19.21,103.27c-3.47,27.93-19.75,52.36-40.92,70.25
					c-48.77,41.22-117.82,45.72-176.01,23.65c-60.61-22.98-105.39-74.3-122.12-136.7c-8.44-31.47-12.99-68.98,3.34-98.65
					c13.73-24.96,36.74-43.26,50.84-67.97c3.23-5.67,5.87-11.63,7.8-17.86c0.45-1.45-0.81-3.31-2.41-3.16
					c-44.43,3.95-88.86,7.91-133.3,11.86c-21.66,1.93-43.4,4.53-65.16,4.91c-21.22,0.37-41.31-3.12-61.42-9.77
					c-17.43-5.77-33.98-13.78-48.99-24.39c-15.1-10.68-30.69-20.8-45.62-31.71c-14.98-10.94-25.98-25.04-37.68-39.23
					c-9.29-11.27-15.87-24.54-11.35-39.54c2.43-8.07,7.52-15.97,11.35-23.43c2.59-5.06,5.22-10.09,7.92-15.09
					c1.71-3.18,3.28-6.97,5.56-9.8c2.24-2.77,7.06-4.6,10.43-6.21c5.46-2.6,11.11-5.27,16.91-7.02c3.97-1.2,8.23-1.18,12.42-1.32
					c40.95-1.33,82.18,1.16,123.1,2.41c22.64,0.69,45.28,1.4,67.92,1.8c14.58,0.26,29.44,0.95,43.99-0.33
					C3338.89,567.83,3340.6,567.67,3342.25,567.3c3.14-0.7,1.81-5.53-1.33-4.82c-4.09,0.92-8.74,0.83-13.03,0.94
					c-8.04,0.2-16.09,0.14-24.13,0.05c-22.71-0.26-45.41-0.96-68.11-1.64c-43.6-1.31-87.42-3.83-131.05-2.8
					c-4.64,0.11-9.52,0.06-14.09,1c-4.23,0.88-8.33,2.84-12.28,4.53c-5.63,2.4-11.57,4.82-16.69,8.23
					c-5.89,3.93-8.9,12.84-12.06,18.84c-5.13,9.73-10.25,19.5-14.82,29.51c-4.42,9.68-4.54,21.72-0.57,31.6
					c2.41,6,6.3,11.17,10.35,16.15c5.67,6.98,11.32,14.03,17.14,20.87c11.91,13.98,27.38,23.85,42.56,33.87
					c15.98,10.54,30.64,22.86,47.81,31.54c16.66,8.42,34.87,14.69,53.15,18.44c21.14,4.33,42.88,3.27,64.24,1.49
					c45.79-3.8,91.54-8.13,137.31-12.2c11.48-1.02,22.96-2.04,34.44-3.06c-0.8-1.05-1.61-2.11-2.41-3.16
					c-8.91,28.66-33.45,48.63-50.38,72.41c-9.17,12.88-15.62,26.91-17.93,42.65c-2.41,16.44-1.07,33.32,1.54,49.65
					c10.08,63.16,47.87,120.21,104.48,150.81c55.11,29.78,124.64,35.41,180.62,4.8c24.38-13.33,46.1-33.26,58.54-58.37
					c14.44-29.16,12.13-61.1,4.17-91.8c-9.12-35.19-22.71-68.77-23.46-105.61c-0.71-34.9,7.69-69.76,23.74-100.73
					c4.01-7.74,8.51-15.21,13.37-22.44c-1.14,0.3-2.28,0.6-3.42,0.9c37.83,27.39,61.41,68.24,87.74,105.77
					c26.33,37.52,57.4,70.99,102.04,85.83c28,9.31,57.97,11.67,87.32,11.37c26.32-0.27,53.17-2.28,78.47-9.97
					c23.04-7,44.51-19.3,58.84-39.07c13.91-19.19,19.41-43.04,20.15-66.41c1.42-44.74-10.34-97.59-45-128.51
					c-41.98-37.45-103.4-29.96-155.01-25.76c-32.83,2.67-65.66,5.52-98.51,8.01c-15.57,1.18-32.16,2.09-47.04-3.53
					c-11.57-4.37-24.8-14.72-24.1-28.44c0.61-11.99,10.96-20.21,20.55-25.76c11.75-6.8,24.8-11,37.49-15.66
					c29.52-10.83,59.18-21.34,88.54-32.59c44.95-17.23,91.71-40.72,108.29-89.29c13.18-38.63,4.39-82.83-21.87-113.93
					c-35.4-41.91-97.69-53.99-149.84-55.35c-29.64-0.77-61.43,1.46-89.66,11.17c-25.8,8.88-43.02,27.15-58.26,49.04
					c-18.33,26.33-36.27,52.94-54.4,79.41c-14.32,20.91-29.21,43.76-52.34,55.84c-22.49,11.75-48.81,7.91-67.43-9.11
					c-18.08-16.53-26.47-39.67-29.23-63.48c-3.17-27.32-1.94-55.83-13.23-81.52c-9.81-22.32-28.44-39.15-49.13-51.36
					c-22.04-13.02-46.62-21.45-71.36-27.65c-29.06-7.28-58.83-11.8-88.74-13.65c-30.48-1.89-61.15-0.98-91.46,2.74
					c-28.46,3.49-57.3,8.83-84.38,18.46c-37.55,13.36-87.93,42.07-81.97,89.18c3.11,24.57,20.91,44.58,40.36,58.46
					c24.36,17.38,53.14,27.95,80.47,39.63c30.61,13.09,61.22,26.17,91.83,39.26c15.13,6.47,30.27,12.94,45.4,19.41
					c14.4,6.16,29.21,11.76,43.27,18.67c11,5.41,20.81,14.04,17.52,27.43c-2.89,11.77-13.44,20.82-24.4,24.94
					C3337.94,563.6,3339.23,568.43,3342.25,567.3L3342.25,567.3z"/>
			</g>
		</g>
		<g>
			<g>
				<path class="st6" d="M3685.98,647.94c5.73-4.46,10.74-9.76,14.84-15.75c1.93-2.82,3.63-5.79,5.06-8.89
					c1.61-3.48,3.34-7.28,2.78-11.21c-0.55-3.93-3.49-6.74-6.5-9.03c-2.76-2.1-5.79-3.83-8.96-5.25
					c-6.88-3.07-14.22-4.75-21.68-5.62c-16.38-1.91-32.97,0.19-49.4,0.1c-15.1-0.08-30.19-0.96-45.29-0.5
					c-14.56,0.44-29.37,2.11-43.04,7.37c-6.62,2.55-13.02,5.79-18.49,10.37c-4.97,4.16-9.19,9.81-10.26,16.34
					c-2.18,13.3,7.03,25.57,18.04,31.96c12.98,7.54,28.53,9.2,43.25,9.66c17.05,0.53,34.11-0.7,51.05-2.53
					c8.52-0.92,17.02-1.99,25.53-3.07c8.13-1.03,16.28-2.02,24.3-3.74c3.89-0.84,7.73-1.86,11.5-3.14c3.03-1.03,1.73-5.86-1.33-4.82
					c-7.43,2.52-15.13,4.01-22.88,5.16c-7.93,1.17-15.9,2.11-23.85,3.08c-16.19,1.98-32.44,3.68-48.75,4.09
					c-14.74,0.37-30.13,0.28-44.38-3.96c-11.61-3.46-23.55-10.85-27.04-23.2c-1.55-5.49-0.69-11.04,2.42-15.82
					c3.36-5.17,8.64-8.91,14-11.79c12.01-6.46,25.72-9.25,39.2-10.37c14.34-1.19,28.75-0.64,43.12-0.3
					c7.28,0.17,14.56,0.31,21.84,0.15c8.11-0.17,16.2-0.71,24.31-0.78c14.23-0.12,29.54,1.2,41.78,9.17
					c2.35,1.53,5.33,3.49,6.35,6.23c1.12,3.03-0.92,6.77-2.19,9.46c-2.88,6.05-6.75,11.58-11.4,16.4c-2.32,2.41-4.83,4.63-7.47,6.69
					c-1.07,0.83-0.87,2.66,0,3.54C3683.5,648.99,3684.92,648.77,3685.98,647.94L3685.98,647.94z"/>
			</g>
		</g>
	</g>
	<g>
		<g>
			<g>
				<path class="st7" d="M5739.71,558.18c30.17-54.23,10.47-117.48-1.05-174.01c-2.74-13.43-5-27.69-1.89-41.26
					c3.12-13.63,12.13-23.88,24.18-30.56c11.68-6.48,24.93-9.79,37.97-12.21c16.47-3.06,33.19-5.01,49.88-6.32
					c16.74-1.31,33.54-1.85,50.33-1.61c15.91,0.23,33.61-0.26,48.24,6.94c12.85,6.33,23.2,17.79,31.06,29.55
					c7.67,11.49,13.16,24.34,16,37.87c2.82,13.48,2.89,27.58-0.05,41.05c-3.4,15.63-10.38,30.29-12.85,46.15
					c-2.3,14.7-0.93,29.88,3.92,43.95c2.36,6.84,5.42,13.73,9.46,19.75c3.97,5.92,9.71,6.59,16.15,4.3
					c25.71-9.17,47.71-26.73,69-43.27c22.15-17.21,44.85-34.37,71.71-43.48c54.2-18.37,118.82-7.84,160.69,32.33
					c18.25,17.51,31.87,40.15,36.59,65.15c2.66,14.08,2.35,28.98-2.67,42.52c-4.92,13.26-14.64,23.8-26.22,31.64
					c-11.5,7.78-24.42,13.22-37.51,17.7c-14.54,4.97-29.44,9.01-44.42,12.45c-31.48,7.22-63.76,11.26-96.08,10.72
					c-16.3-0.27-32.59-1.71-48.64-4.58c-7.78-1.39-15.42-3.25-23.1-5.11c-7.21-1.75-14.89-3.15-22.17-0.98
					c-12.78,3.81-20.4,16.4-21.61,29.14c-1.34,14.04,4.74,27.71,13.22,38.56c9.29,11.88,21.43,21.16,33.45,30.1
					c12.41,9.22,25.26,17.75,39.11,24.68c22.03,11.02,46.2,19.07,66.01,34.06c8.67,6.56,15.99,14.69,20.43,24.68
					c1.3,2.93,5.61,0.39,4.32-2.52c-9.68-21.8-31.88-34.11-52.44-43.9c-11.49-5.47-23.22-10.41-34.63-16.05
					c-13.93-6.89-26.88-15.36-39.36-24.59c-12.33-9.11-25.01-18.68-34.2-31.12c-8.75-11.84-14.29-27.53-9.05-42
					c2.28-6.3,6.76-11.91,12.82-14.92c7.56-3.77,16.08-1.97,23.88-0.04c15.55,3.86,31.21,6.75,47.18,8.24
					c32.21,3.01,64.75,0.98,96.6-4.44c16-2.72,31.86-6.32,47.5-10.67c13.94-3.88,27.81-8.21,41.04-14.1
					c12.19-5.42,24.02-12.33,33.47-21.87c9.86-9.95,16.28-22.65,18.58-36.46c4.3-25.86-3.81-52.86-17.75-74.6
					c-30.55-47.65-87.5-70.96-142.91-67.33c-29.02,1.9-56.35,11.19-80.87,26.72c-23.44,14.84-44,33.68-67.01,49.13
					c-11.48,7.71-24,15.42-37.23,19.71c-3.87,1.26-7.06,1.3-9.56-2.33c-2.29-3.32-4.14-7.08-5.82-10.73
					c-3.24-7.04-5.51-14.54-6.81-22.17c-2.73-16-0.11-31.41,4.74-46.71c4.6-14.48,9.49-28.64,10.13-43.97
					c1.15-27.46-8.94-54.64-26.53-75.58c-9.26-11.02-20.55-20.6-34.6-24.63c-15.45-4.43-32.46-3.98-48.39-3.99
					c-33.02-0.04-66.68,2.39-99.06,9.09c-25.02,5.17-52.77,15.95-60.32,43.03c-3.68,13.18-2.23,27.2,0.18,40.47
					c2.7,14.84,6.29,29.52,9.36,44.29c6.14,29.47,11.51,60.17,7.11,90.29c-2.12,14.51-6.67,28.52-13.81,41.34
					C5733.82,558.47,5738.14,560.99,5739.71,558.18L5739.71,558.18z"/>
			</g>
		</g>
		<g>
			<g>
				<path class="st7" d="M5901.63,840.15c15.09,8.91,23.86,24.32,28.07,40.94c4.8,18.96,3.48,38.62,5,57.96
					c0.84,10.65,2.49,21.35,6.33,31.38c3.25,8.5,7.96,16.25,13.86,23.17c11.89,13.96,27.93,24,44.86,30.71
					c19.99,7.93,41.75,10.88,63.16,10.75c11.37-0.07,22.71-1.03,33.97-2.59c11.12-1.54,22.31-3.48,33.14-6.49
					c10.25-2.85,19.83-7.18,28.28-13.69c7.98-6.15,14.76-13.61,21.13-21.37c13.38-16.31,25.89-33.58,35.27-52.54
					c8.83-17.83,14.83-37.21,15.25-57.22c0.4-18.93-4.14-38.1-14.24-54.22c-2.54-4.06-5.43-7.9-8.57-11.5
					c-2.12-2.43-5.64,1.12-3.54,3.54c12.23,14.04,19.29,31.93,20.95,50.41c1.71,19.12-2.11,38.07-9.32,55.76
					c-7.75,19.01-19.21,36.41-31.69,52.62c-12.03,15.62-25.16,31.93-43.88,39.67c-10.04,4.16-20.89,6.29-31.54,8.21
					c-10.95,1.97-21.99,3.37-33.09,4.02c-21.56,1.26-43.53-0.28-64.23-6.74c-17.1-5.33-33.52-14.05-46.46-26.56
					c-6.05-5.85-11.27-12.52-15.19-19.99c-4.7-8.95-7.25-18.88-8.58-28.86c-2.62-19.67-0.88-39.69-4.26-59.28
					c-2.84-16.5-9.32-33.06-21.79-44.69c-3.16-2.94-6.65-5.53-10.36-7.72C5901.37,834.19,5898.85,838.51,5901.63,840.15
					L5901.63,840.15z"/>
			</g>
		</g>
		<g>
			<g>
				<path class="st7" d="M5590.23,715.74c-35.71,18.66-70.27,39.41-104.08,61.3c-33.57,21.74-66.42,44.57-99.16,67.52
					c-15.4,10.79-31.51,21.14-45.14,34.18c-13.42,12.83-22.17,28.57-28.6,45.84c-3.4,9.13-6.39,18.44-9.28,27.75
					c-3.01,9.67-5.7,19.48-7.2,29.51c-2.49,16.7-1.42,33.8,5.97,49.2c7.56,15.77,20.97,26.1,36.91,32.59
					c17.14,6.97,35.66,11.31,53.71,15.18c36.22,7.77,73.58,11.53,110.6,8.94c36.86-2.57,72.68-11.8,105.48-28.96
					c17.11-8.95,33.59-19.15,50.11-29.13c16.05-9.7,31.99-19.56,47.76-29.71c30.94-19.92,61.2-40.98,89.85-64.1
					c27.96-22.57,54.38-47.18,77.71-74.55c5.54-6.5,10.89-13.16,16.07-19.96c1.95-2.56-2.39-5.05-4.32-2.52
					c-21.23,27.87-45.84,53.05-72.21,76.06c-27,23.56-55.87,44.89-85.56,64.91c-30.21,20.37-61.29,39.39-92.61,58
					c-16.73,9.94-33.6,19.83-51.7,27.11c-16.28,6.54-33.29,11.2-50.57,14.23c-35.86,6.27-72.86,5.52-108.81,0.33
					c-17.99-2.6-35.82-6.32-53.39-10.99c-17.06-4.53-36-9.06-49.84-20.63c-12.39-10.36-19.42-25.81-21.04-41.72
					c-1.95-19.17,3.33-38.15,9.1-56.24c5.61-17.56,11.13-35.62,21.41-51.12c10.18-15.36,25.14-26.62,39.99-37.14
					c31.73-22.48,63.64-44.73,96.01-66.28c32.52-21.65,65.64-42.45,99.77-61.47c8.47-4.72,17.01-9.33,25.61-13.82
					C5595.61,718.57,5593.08,714.25,5590.23,715.74L5590.23,715.74z"/>
			</g>
		</g>
		<g>
			<g>
				<path class="st7" d="M5745.66,543.94c-0.93,8.34-11.52,12.57-18.26,15.14c-10.39,3.95-21.02,7.64-31.86,10.13
					c-20.97,4.81-42.73,3.47-63.44-1.92c-41-10.67-75.25-35.45-109.28-59.57c-16.62-11.78-33.46-23.36-51.5-32.89
					c-18.81-9.94-38.79-17.08-59.49-21.92c-21.28-4.98-43-7.8-64.7-10.13c-21.71-2.33-44-5.9-65.68-1.65
					c-19.56,3.83-37.66,12.98-54.41,23.52c-8.5,5.35-16.74,11.1-24.96,16.87c-8.38,5.9-16.74,11.85-24.57,18.47
					c-7.59,6.41-14.64,13.51-20.34,21.68c-5.83,8.36-9.94,17.82-12.76,27.58c-5.94,20.58-7.07,42.78-7.65,64.08
					c-0.51,18.74-1.28,39.11,5.31,56.99c2.98,8.09,7.57,15.56,14.04,21.33c7.33,6.54,16.41,10.62,25.6,13.84
					c40.82,14.34,85.2,15.6,127.92,11.97c45.26-3.84,89.7-13.49,134.52-20.49c23.26-3.63,46.68-6.52,70.22-7.45
					c11.64-0.46,23.31-0.43,34.95,0.22c9.9,0.56,21.27,0.63,30.26,5.35c8.68,4.55,11.63,13.58,14.03,22.45
					c0.84,3.1,5.66,1.79,4.82-1.33c-2.27-8.39-5.07-17.11-12.16-22.71c-7.4-5.84-17.19-7.14-26.29-7.97
					c-23.24-2.12-46.66-1.51-69.87,0.6c-45.93,4.18-91.01,14.19-136.55,21.04c-43.28,6.51-87.91,10.36-131.38,3.28
					c-10.64-1.73-21.17-4.13-31.48-7.28c-9.82-3.01-19.82-6.52-28.15-12.68c-14.95-11.07-19.46-29.81-20.55-47.44
					c-1.35-21.88-0.25-44.24,2.23-66.01c2.34-20.56,7.49-41.23,20.82-57.57c13.01-15.95,30.71-27.56,47.47-39.18
					c16.61-11.51,33.86-22.68,52.99-29.54c9.49-3.4,19.4-5.74,29.48-6.42c11.44-0.78,22.9,0.5,34.27,1.62
					c22.08,2.19,44.19,4.47,66.02,8.58c21.17,3.99,42.09,9.72,61.69,18.76c18.73,8.64,36.15,19.8,53.06,31.54
					c33.85,23.49,66.55,48.96,105.89,62.73c19.58,6.86,40.49,10.76,61.29,9.36c10.9-0.73,21.56-3.03,31.97-6.27
					c9.34-2.91,19.11-5.88,27.83-10.38c6.66-3.44,12.76-8.47,13.64-16.34C5751.01,540.75,5746.01,540.78,5745.66,543.94
					L5745.66,543.94z"/>
			</g>
		</g>
		<g>
			<g>
				<path class="st8" d="M5892.92,569.73c-17.64,2.01-35.02,6.02-51.69,12.16c-8.22,3.03-16.27,6.55-24.06,10.56
					c-7.57,3.9-15.05,8.19-21.58,13.7c-6.36,5.37-11.19,12.06-14.02,19.9c-2.73,7.56-3.5,15.72-3.59,23.71
					c-0.05,4,0.08,8,0.24,11.99c0.17,4.31,0.32,8.75,1.68,12.88c2.7,8.24,10.13,13.7,16.78,18.72
					c13.15,9.94,28.28,17.75,44.78,19.94c17.81,2.36,35.35-2.53,51.6-9.5c8.01-3.44,15.79-7.39,23.54-11.39
					c6.83-3.52,13.61-7.18,20-11.44c12.4-8.27,24.01-19.5,26.18-34.94c2.28-16.29-4.28-33.62-14.87-45.89
					c-10.69-12.39-26.52-19.86-42.84-20.59c-4.1-0.18-8.19,0.13-12.24,0.84c-1.33,0.23-2.08,1.86-1.75,3.08
					c0.39,1.4,1.74,1.98,3.08,1.75c14.81-2.6,31,1.81,42.7,11.21c11.59,9.31,19.47,23.42,21.09,38.24c0.85,7.8-0.26,15.6-4.15,22.49
					c-3.31,5.85-8.09,10.68-13.3,14.86c-5.62,4.5-11.85,8.23-18.14,11.69c-6.88,3.79-13.9,7.36-20.97,10.79
					c-14.96,7.27-30.95,13.76-47.78,14.39c-16.11,0.61-31.39-4.82-44.92-13.28c-6.5-4.07-13-8.69-18.47-14.09
					c-2.79-2.75-4.93-5.83-5.91-9.66c-0.99-3.87-1-7.93-1.15-11.9c-0.55-14.75-0.45-30.95,9.04-43.18
					c4.83-6.23,11.44-10.85,18.16-14.83c7.1-4.21,14.52-7.91,22.09-11.18c15.46-6.68,31.8-11.41,48.39-14.28
					c4.01-0.69,8.04-1.27,12.08-1.73c1.34-0.15,2.5-1.04,2.5-2.5C5895.42,571,5894.27,569.58,5892.92,569.73L5892.92,569.73z"/>
			</g>
		</g>
	</g>
	<path class="st9" d="M3818.29,1892.69"/>
	
		<linearGradient id="SVGID_00000074430366774998139710000002974201239105133205_" gradientUnits="userSpaceOnUse" x1="4336.313" y1="786.0079" x2="4347.0845" y2="1906.9857">
		<stop  offset="0.0237" style="stop-color:#D9BACA"/>
		<stop  offset="0.2911" style="stop-color:#C29DAE"/>
		<stop  offset="0.4832" style="stop-color:#B68C9F"/>
		<stop  offset="0.6799" style="stop-color:#B0849A"/>
		<stop  offset="0.8274" style="stop-color:#8F718D"/>
		<stop  offset="1" style="stop-color:#7E6585"/>
	</linearGradient>
	<path style="fill:url(#SVGID_00000074430366774998139710000002974201239105133205_);" d="M1611.25,1832.85
		c0,0,162.04-96.08,504.06-184.02c0,0,248.48-61.29,260.17-269.14c0,0,35.08-208.8,78.93-232.31c0,0,169.55-252.67,654.81-335.28
		c0,0,537.88-61.29,564.19,362.4c0,0-198.78,293.12-222.17,314.44c0,0-11.69,170.54,260.17,13.32c0,0,517.42-271.8,1546.41-50.63
		c0,0,318.37,103.92,702.91-255.81c0,0,336.29-445.01,1111.7-306.44v1049.9c-209.38-15.16-533.1-37.55-933.04-60.69
		c-278.27-16.1-490.73-26.63-655.46-34.76c-531.73-26.23-810.07-39.96-1131-47.78c-97.99-2.39-372.44-8.42-1015.81-1.8
		C2897.74,1798.79,2312.31,1808.95,1611.25,1832.85z"/>
	
		<linearGradient id="SVGID_00000061432341084001412870000002758895214098771341_" gradientUnits="userSpaceOnUse" x1="3558.8401" y1="1699.3345" x2="4093.2925" y2="1699.3345" gradientTransform="matrix(-0.9967 -0.0808 0.0808 -0.9967 6750.3389 3240.876)">
		<stop  offset="0.0237" style="stop-color:#8ED1E2"/>
		<stop  offset="0.3358" style="stop-color:#6CC7E5"/>
		<stop  offset="0.662" style="stop-color:#47B6E2"/>
		<stop  offset="1" style="stop-color:#32A3DA"/>
	</linearGradient>
	<path style="fill:url(#SVGID_00000061432341084001412870000002758895214098771341_);" d="M2821.52,1281.75
		c11.4-23.14,34.79-61.83,113.04-122.47c89.11-69.07,175.79-136.25,285.22-129.59c22.8,1.39,70.87,4.92,102.15,36.44
		c33.47,33.72,28.12,79.72,25.76,100c-12.59,108.26-123.02,178.82-161.2,203.22c-13.33,8.52-146.15,91.04-298.61,73.83
		c-42.61-4.81-63.61-14.8-76.35-29.15C2776.05,1374.06,2809.61,1305.92,2821.52,1281.75z"/>
	<g>
		<g>
			<path class="st12" d="M564.19,3107.81c0,0,1.72-237.46,143.06-573.95c0,0,401.61-330.87,105.14-496.81
				c0,0-34.47-9.84-20.68,50.63c0,0,70.67,201.98-170.64,375.22c0,0-420.57,250.31-274.06,644.92H564.19z"/>
			<path class="st12" d="M-65.16,2890.42c83.56-70.65,199.79-190.48,259.75-359.13c33.34-93.78,54.45-153.17,36.26-230.93
				c-23.02-98.41-90.36-146.59-73.53-230.93c10.78-54.04,50.33-93.99,81.24-118.89c16.19-10.48,38.69-9.08,52.16,1.65
				c7.51,5.99,11.16,17.05,5.91,36.56c0,0-37.46,94.75,39.34,198.68c0,0,174.2,264.39,9.37,444.73c0,0-244.04,429.45-410.49,430.98
				V2890.42z"/>
			<g>
				<g>
					<g>
						<path class="st0" d="M263.78,1931.64c-23.75,25.14-45.23,52.97-58.6,85.11c-13.21,31.77-18.39,66.13-19.92,100.32
							c-0.78,17.54-0.66,35.11-0.27,52.66c0.39,17.69,0.49,35.51,2.39,53.12c2,18.51,7.19,35.55,15.1,52.37
							c7.58,16.12,15.13,32.02,20.39,49.1c20.95,67.96,12.65,141.23-11.3,207.24c-24.44,67.38-63.61,128.35-104.98,186.44
							c-34.74,48.77-74.2,98.65-131.88,120.84c-7.55,2.9-15.28,5.25-23.14,7.13c-1.69,0.41-1.47,1.3,0.24,0.89
							c58.45-14,102.13-55.59,137.63-102.05c20.84-27.27,40.42-55.69,58.91-84.6c19.37-30.28,37.25-61.61,51.97-94.43
							c28.8-64.2,45.17-135.58,33.9-205.91c-2.79-17.41-7.28-34.55-13.49-51.06c-6.4-17.01-15.57-32.79-22.02-49.76
							c-6.55-17.22-8.79-35.52-9.7-53.82c-0.88-17.73-1.24-35.53-1.39-53.28c-0.31-35.7,1.32-71.81,10.55-106.47
							c9.37-35.19,27.31-66.38,50.54-94.23c5.68-6.81,11.61-13.39,17.69-19.83C266.99,1930.8,264.27,1931.13,263.78,1931.64
							L263.78,1931.64z"/>
					</g>
				</g>
				<g>
					<g>
						<path class="st0" d="M285.22,1933.62c1.49,12.2-1.46,24.12-4.59,35.83c-2.82,10.53-5.35,21.07-6.98,31.86
							c-3.09,20.41-3.53,41.21-1.41,61.74c4.39,42.4,19.85,83.23,43.62,118.53c6.53,9.7,13.81,18.97,19.18,29.39
							c5.39,10.47,8.42,21.89,11.33,33.25c6.13,23.94,12.03,47.95,17.16,72.13c10,47.17,17.07,95.24,16.52,143.56
							c-0.52,46.08-8.13,92.3-25.39,135.16c-2.18,5.41-4.52,10.75-6.98,16.04c-0.36,0.78,2.47,0.49,2.89-0.4
							c19.56-41.93,29.49-87.61,31.83-133.71c2.42-47.64-3.07-95.29-12.05-142.02c-4.66-24.25-10.26-48.31-16.22-72.27
							c-2.91-11.68-5.6-23.48-9.19-34.98c-3.38-10.83-8.28-20.72-14.56-30.15c-6.54-9.82-13.57-19.26-19.63-29.39
							c-5.57-9.32-10.58-18.97-14.98-28.9c-8.61-19.43-14.85-39.91-18.42-60.86c-3.6-21.15-4.48-42.77-2.46-64.14
							c0.99-10.47,2.66-20.87,5.01-31.11c2.6-11.32,6.43-22.41,8-33.95c0.74-5.45,0.88-10.92,0.21-16.39
							C288.01,1931.97,285.1,1932.6,285.22,1933.62L285.22,1933.62z"/>
					</g>
				</g>
				<g>
					<g>
						<path class="st0" d="M246.39,2058.03c-7.24,33.71-5.38,68.43,1.23,102.08c6.77,34.47,18.18,67.77,29.81,100.84
							c11.63,33.05,23.56,66.14,31.34,100.35c7.7,33.82,10.49,68.21,5.97,102.69c-4.6,35.11-15.25,69.11-27.12,102.35
							c-1.45,4.07-2.93,8.12-4.41,12.18c-0.16,0.45,2.59,0.19,2.85-0.53c11.99-32.71,23.22-65.92,29.33-100.3
							c3.01-16.96,4.74-34.17,4.59-51.4c-0.15-17.12-2.09-34.18-5.24-51c-6.44-34.41-17.74-67.66-29.31-100.62
							c-11.68-33.27-23.76-66.49-31.8-100.88c-7.86-33.62-11.85-68.59-6.81-102.95c0.66-4.48,1.47-8.92,2.42-13.35
							C249.36,2056.94,246.54,2057.34,246.39,2058.03L246.39,2058.03z"/>
					</g>
				</g>
			</g>
			<g>
				<g>
					<path class="st0" d="M810.64,2099.21c10.43,21.44,16.73,44.52,20.84,67.94c4,22.85,6.5,46.09,8.32,69.21
						c1.78,22.75,2.23,45.81-1.71,68.37c-4.01,23.02-12.99,44.25-26.69,63.17c-13.42,18.54-29.53,35.16-45.39,51.6
						c-15.04,15.61-30.44,30.87-45.87,46.09c-30.54,30.14-61.31,60.14-89.63,92.42c-27.22,31.03-52.32,64.37-70.81,101.41
						c-2.16,4.33-4.23,8.7-6.2,13.12c-0.38,0.85,2.48,0.55,2.89-0.38c16.99-37.98,41.18-72.22,67.97-103.87
						c28.05-33.15,59-63.71,89.89-94.17c15.46-15.24,30.93-30.47,46.11-45.98c15.53-15.88,31.13-31.91,45.18-49.13
						c14.54-17.82,26.07-37.37,32.12-59.68c5.89-21.7,6.96-44.37,6.06-66.74c-0.93-22.96-3.51-45.97-6.64-68.73
						c-3.22-23.41-7.89-46.78-16.37-68.9c-2.15-5.61-4.55-11.12-7.18-16.53C813.06,2097.46,810.24,2098.39,810.64,2099.21
						L810.64,2099.21z"/>
				</g>
			</g>
			<path class="st13" d="M604.14,2010.49c0,0-466.08,155.72-148.78,549.77l346.14,155.33c0,0,66.8,114.25-40.99,395.19h135.12
				c0,0,174.59-136.92,83.5-430.26c0,0-72.87-134.66-242.91-184.33c0,0-306.67-55.19-157.89-299.43c0,0,7.59-95.4,50.1-162.23
				C628.43,2034.54,636.02,2020.15,604.14,2010.49z"/>
			<g>
				<g>
					<g>
						<path class="st14" d="M380.1,2204.46c-2.65-4.53-0.85-10,1.38-14.3c2.02-3.88,4.53-7.55,7.01-11.15
							c4.87-7.07,10.24-13.81,15.97-20.2c11.53-12.84,24.47-24.33,37.96-35.07c13.78-10.97,28.15-21.18,42.5-31.38
							c14.34-10.19,28.68-20.39,42.48-31.32c13.68-10.84,26.83-22.42,38.61-35.33c1.43-1.56,2.83-3.15,4.21-4.74
							c0.47-0.54-0.4-0.87-0.8-0.89c-0.71-0.05-1.45,0.27-1.91,0.8c-11.53,13.3-24.59,25.2-38.25,36.28
							c-13.83,11.21-28.3,21.59-42.8,31.9c-14.44,10.28-28.93,20.5-42.9,31.42c-13.7,10.71-26.91,22.12-38.75,34.88
							c-5.89,6.34-11.44,13-16.51,20.01c-2.53,3.49-4.93,7.06-7.2,10.72c-2.46,3.96-4.99,8.39-5.22,13.17
							c-0.11,2.29,0.39,4.38,1.54,6.36C377.91,2206.46,380.73,2205.53,380.1,2204.46L380.1,2204.46z"/>
					</g>
				</g>
				<g>
					<g>
						<path class="st14" d="M613.41,2016.08c-0.24,26.97-2.61,53.91-7.09,80.51c-4.45,26.35-11.28,52.12-19.04,77.68
							c-7.65,25.21-15.9,50.26-22.27,75.84c-5.97,23.98-10.16,48.47-10.57,73.23c-0.4,24.04,2.78,48.3,11.48,70.81
							c1.1,2.85,2.3,5.67,3.56,8.46c0.44,0.96,3.27,0.05,2.9-0.78c-10.04-22.06-14.52-46.16-15.03-70.31
							c-0.52-24.89,3.05-49.7,8.66-73.9c5.94-25.68,14.04-50.78,21.79-75.95c7.8-25.35,15.04-50.84,19.91-76.95
							c4.9-26.33,7.73-53.05,8.44-79.83c0.08-3.19,0.14-6.39,0.17-9.58C616.31,2014.48,613.42,2015,613.41,2016.08L613.41,2016.08z"
							/>
					</g>
				</g>
				<g>
					<g>
						<path class="st14" d="M568.05,2050.82c-11.23,30.15-33.93,53.8-53.17,78.93c-9.36,12.22-18.18,25.03-24.41,39.16
							c-3.35,7.58-5.86,15.49-7.44,23.63c-1.88,9.68-2.6,19.54-3.23,29.37c-0.66,10.28-1.23,20.59-2.93,30.76
							c-1.63,9.76-4.41,19.27-7.64,28.61c-6.49,18.77-14.48,36.96-19.47,56.24c-2.52,9.75-4.45,19.65-5.77,29.63
							c-1.28,9.63-2.4,19.61-1.9,29.33c0.42,7.97,2.69,15.55,7.52,21.96c4.09,5.43,9.59,9.61,15.47,12.93
							c12.76,7.18,27.19,10.79,41.14,14.85c18.21,5.31,35.75,12.65,52.14,22.22c4.15,2.42,8.21,4.98,12.2,7.66
							c0.73,0.49,3.27-0.67,2.72-1.04c-15.73-10.55-32.74-19.16-50.57-25.52c-14.79-5.28-30.29-8.44-44.84-14.4
							c-12.66-5.19-25.24-13.07-30.34-26.42c-3.54-9.26-2.8-19.53-2.03-29.21c0.8-10.03,2.22-20.02,4.23-29.88
							c4.02-19.7,11.03-38.28,18.09-57.04c3.44-9.12,6.73-18.32,9.2-27.76c2.51-9.58,3.87-19.34,4.68-29.2
							c1.57-19.3,1.61-38.93,7.86-57.47c5.01-14.85,13.2-28.35,22.35-40.99c18.3-25.27,40.92-47.87,54.54-76.27
							c1.65-3.44,3.14-6.95,4.47-10.53C571.18,2049.68,568.35,2050,568.05,2050.82L568.05,2050.82z"/>
					</g>
				</g>
				<g>
					<g>
						<path class="st14" d="M1021.63,2923.22c-11.98-32.35-21-65.78-26.87-99.78c-2.89-16.75-4.95-33.61-6.38-50.54
							c-1.31-15.46-2.28-30.95-4.06-46.36c-3.48-30.07-10.53-60.24-28.56-85.15c-16.59-22.92-40.12-39.72-64.51-53.48
							c-12.69-7.16-25.78-13.59-38.94-19.85c-15.71-7.47-31.45-14.86-47.18-22.28c-4.13-1.95-8.27-3.9-12.4-5.86
							c-1.04-0.49-3.62,0.95-2.26,1.59c16.31,7.7,32.62,15.4,48.93,23.1c13.34,6.3,26.69,12.6,39.74,19.51
							c24.97,13.23,49.46,28.87,67.84,50.67c9.52,11.29,16.97,24.07,22.25,37.86c5.46,14.25,8.69,29.24,10.86,44.31
							c2.21,15.35,3.34,30.83,4.56,46.29c1.28,16.33,2.84,32.63,5.27,48.84c5.1,33.98,13.33,67.5,24.55,99.98
							c1.38,3.99,2.81,7.97,4.27,11.93C1019.18,2925.21,1022.07,2924.39,1021.63,2923.22L1021.63,2923.22z"/>
					</g>
				</g>
				<g>
					<g>
						<path class="st14" d="M1013.68,2926.69c-18.8-26.03-37.6-52.05-56.39-78.08c-8.52-11.8-16.9-23.73-25.72-35.31
							c-7.93-10.42-16.38-20.54-26.11-29.34c-10.05-9.09-21.39-16.32-33.98-21.37c-13.37-5.36-27.44-8.87-41.19-13.12
							c-26.65-8.24-53-17.61-78.35-29.28c-25.18-11.59-49.37-25.48-71.19-42.63c-2.68-2.11-5.32-4.26-7.93-6.46
							c-0.71-0.6-3.38,0.51-2.7,1.08c21.08,17.79,44.67,32.38,69.4,44.52c24.95,12.25,51.02,22.06,77.44,30.6
							c13.62,4.4,27.46,8.14,41.06,12.59c13.45,4.4,26.1,10.23,37.33,18.94c21.45,16.63,36.77,39.77,52.49,61.53
							c18.73,25.93,37.46,51.87,56.2,77.8c2.32,3.21,4.63,6.41,6.95,9.62C1011.48,2928.47,1014.28,2927.52,1013.68,2926.69
							L1013.68,2926.69z"/>
					</g>
				</g>
				<g>
					<g>
						<path class="st14" d="M437.69,2545.47c9.05,7.71,17.37,16.24,24.84,25.5c0.44,0.55,3.18-0.43,2.73-0.99
							c-7.46-9.26-15.78-17.79-24.84-25.5C439.82,2543.97,437.24,2545.09,437.69,2545.47L437.69,2545.47z"/>
					</g>
				</g>
				<g>
					<g>
						<path class="st14" d="M823.43,2743.47c-1.91,25.75-1.52,51.59-0.75,77.38c0.78,25.92,1.94,51.84,1.51,77.77
							c-0.43,25.65-2.45,51.39-8.07,76.46c-5.55,24.75-15.67,47.88-24.03,71.73c-7.82,22.31-14.21,46.33-9.81,70.06
							c0.55,2.95,1.26,5.86,2.12,8.74c0.19,0.62,3.08-0.18,2.9-0.78c-7.03-23.64-2.35-48.14,5.11-71.06
							c7.8-23.94,18.41-46.89,24.67-71.33c6.29-24.51,8.94-49.8,9.78-75.05c0.86-25.89-0.13-51.79-0.97-77.67
							c-0.84-25.81-1.55-51.67-0.17-77.47c0.17-3.19,0.38-6.38,0.61-9.57C826.35,2742.33,823.49,2742.63,823.43,2743.47
							L823.43,2743.47z"/>
					</g>
				</g>
				<g>
					<g>
						<path class="st14" d="M898.7,2797.79c4.14,23.15,7.88,46.41,9.82,69.87c1.94,23.38,2.05,47-1.16,70.28
							c-2.98,21.62-9.33,42.44-16.6,62.96c-7.02,19.81-14.76,39.4-20.66,59.59c-5.8,19.83-9.74,40.4-8.81,61.14
							c0.11,2.45,0.28,4.89,0.52,7.33c0.12,1.23,3.03,0.55,2.9-0.78c-1.99-20.69,1.12-41.41,6.48-61.39
							c5.49-20.47,13.2-40.25,20.38-60.17c7.22-20.04,13.97-40.33,17.56-61.38c3.9-22.91,4.39-46.26,2.95-69.42
							c-1.47-23.59-4.94-47.01-8.97-70.29c-0.49-2.84-0.99-5.67-1.5-8.51C901.38,2795.77,898.47,2796.49,898.7,2797.79
							L898.7,2797.79z"/>
					</g>
				</g>
				<g>
					<g>
						<path class="st14" d="M1010.76,2929.81c2.84,19.46,4.59,39.25,2.69,58.88c-1.63,16.88-6.06,33.61-14.23,48.54
							c-3.97,7.26-8.84,14.03-14.57,20c-4.78,4.99-10.13,9.39-15.68,13.5c-11.19,8.29-23.23,15.36-34.4,23.68
							c-10.48,7.81-20.35,16.94-26.36,28.73c-0.76,1.49-1.45,3-2.07,4.55c-0.29,0.7,2.54,0.4,2.88-0.44
							c5.08-12.48,14.5-22.24,24.98-30.4c11.02-8.58,23.09-15.68,34.43-23.8c5.58-4,11-8.24,15.97-12.99
							c5.76-5.51,10.76-11.76,14.95-18.54c8.78-14.22,13.96-30.45,16.24-46.95c2.67-19.33,1.57-38.96-0.92-58.25
							c-0.31-2.43-0.65-4.86-1.01-7.28C1013.55,2928.28,1010.63,2928.91,1010.76,2929.81L1010.76,2929.81z"/>
					</g>
				</g>
			</g>
		</g>
		<g>
			<g>
				<path class="st15" d="M-139.9,3000.2c33.82-74.69,97.74-136.65,160.42-196.91c30.65-29.47,61.3-58.93,91.95-88.4
					c3.12-3,6.58-6.18,11.24-7c4.55-0.81,9.14,0.82,13.45,2.29c43.67,14.83,92.21,15.47,139.32,13.99c9.7-0.31,19.7-0.66,28.81,2.14
					c7.24,2.22,13.43,6.29,19.34,10.43c18.12,12.7,34.91,26.74,50.1,41.89c22.63,22.57,42.57,48.23,72.78,63.37
					c39.5,19.79,93.41,19.9,123.36,49.16c17.18,16.78,22.5,40.35,19.65,62.31c-2.85,21.96-13.04,42.75-23.91,62.88
					c-12.16,22.51-25.32,44.63-39.44,66.32c-6.31,9.68-13.3,19.71-24.62,25.34c-9.93,4.94-21.89,5.84-33.4,6.63
					c-56.08,3.84-112.16,7.68-168.24,11.52c-36.15,2.48-72.33,4.95-108.59,5.59c-111.7,1.95-222.66-13.58-332.84-29.05
					c-3.79-0.53-7.8-1.15-10.68-3.28c-2.64-1.96-3.89-4.89-4.83-7.73c-11.96-35.95,9.63-73.1,30.58-106.05"/>
				<g>
					<path class="st16" d="M-138.53,3000.32c24.59-54.02,63.61-99.86,104.71-142.05c21.57-22.14,43.94-43.47,66.22-64.89
						c24.59-23.64,49.19-47.28,73.78-70.93c5.97-5.74,12.54-14.72,21.78-13.63c4.18,0.49,8.22,2.27,12.21,3.55
						c3.88,1.24,7.8,2.36,11.74,3.39c14.69,3.83,29.73,6.28,44.83,7.78c16.14,1.61,32.38,2.15,48.6,2.15
						c7.55,0,15.11-0.12,22.66-0.31c8.2-0.21,16.46-0.81,24.65-0.21c16.99,1.23,29.99,11.34,43.08,21.3
						c12.54,9.53,24.51,19.84,35.74,30.88c19.58,19.25,37.02,41.02,59.9,56.6c21.66,14.74,46.92,21.01,71.9,27.66
						c23.58,6.28,49.43,13.1,67.11,31.03c20.43,20.72,22.84,51.07,15.06,77.87c-4.53,15.61-11.91,30.25-19.58,44.51
						c-7.65,14.22-15.68,28.23-24.06,42.03c-4.34,7.15-8.78,14.24-13.3,21.28c-3.92,6.09-7.81,12.28-12.6,17.74
						c-4.81,5.48-10.56,9.99-17.38,12.68c-7.25,2.86-15.11,3.8-22.82,4.45c-33.85,2.84-67.82,4.68-101.71,7
						c-68.13,4.67-136.44,11-204.78,10.74c-68.06-0.26-135.93-6.57-203.42-14.94c-33.62-4.17-67.17-8.85-100.71-13.56
						c-3.65-0.51-7.45-0.8-10.99-1.85c-4.55-1.35-6.97-4.4-8.5-8.75c-2.56-7.25-3.68-15.03-3.59-22.7
						c0.18-15.24,5.03-30.04,11.38-43.75c6.39-13.81,14.39-26.8,22.53-39.62c0.82-1.29-2.12-1.23-2.75-0.25
						c-16.21,25.51-34.49,54.38-34.08,85.76c0.09,7.22,1.2,14.51,3.62,21.34c2.17,6.16,6.14,9.23,12.49,10.47
						c16.58,3.24,33.67,4.81,50.41,7.1c69.32,9.51,138.88,18.06,208.82,21.32c34.72,1.62,69.47,1.83,104.2,0.47
						c34.86-1.37,69.67-3.97,104.48-6.35c35.73-2.45,71.47-4.89,107.2-7.34c16.73-1.15,33.61-1.73,50.28-3.62
						c13.87-1.57,26.43-5.81,36.21-16.16c10.29-10.89,17.79-24.85,25.57-37.54c8.83-14.39,17.27-29.02,25.3-43.86
						c14.09-26.04,28.27-54.96,24.41-85.46c-1.67-13.21-6.79-25.98-15.36-36.24c-7.82-9.37-18.17-16.27-29.15-21.41
						c-23.61-11.05-49.68-15.24-74.38-23.11c-13.18-4.2-25.88-9.54-37.48-17.15c-12.44-8.16-23.39-18.29-33.78-28.88
						c-10.11-10.3-19.77-21.04-30.17-31.07c-11.32-10.92-23.35-21.12-35.94-30.55c-12.45-9.33-24.77-18.45-40.73-19.91
						c-7.97-0.73-16.01-0.19-23.99,0.03c-8.46,0.23-16.93,0.39-25.39,0.38c-33.12-0.02-66.67-2.29-98.61-11.61
						c-6.93-2.02-14.47-5.97-21.85-5.38c-5.95,0.48-10.36,4.35-14.48,8.3c-12.67,12.15-25.31,24.33-37.96,36.49
						c-24.64,23.69-49.36,47.29-73.88,71.1c-43.8,42.52-87.38,86.72-119.59,138.97c-7.64,12.39-14.55,25.22-20.58,38.48
						C-141.93,3001.51-139.02,3001.4-138.53,3000.32L-138.53,3000.32z"/>
				</g>
			</g>
			
				<radialGradient id="SVGID_00000170958091110780523670000005708642836362593412_" cx="2023.8108" cy="1015.3163" r="32.7667" gradientTransform="matrix(8.4898 0 0 7.1016 -17151.4258 -4365.7026)" gradientUnits="userSpaceOnUse">
				<stop  offset="0.0237" style="stop-color:#CE3F35"/>
				<stop  offset="0.3089" style="stop-color:#D55058"/>
				<stop  offset="0.6263" style="stop-color:#B2848E"/>
				<stop  offset="0.9034" style="stop-color:#B68C9F"/>
			</radialGradient>
			<path style="fill:url(#SVGID_00000170958091110780523670000005708642836362593412_);" d="M4.32,2828.65l71.63-68.95
				c55.97,40.69,69.69,105.29,30.39,143.12s-117.69,35.47-173.66-5.21c-0.21-0.15-0.41-0.3-0.62-0.45L4.32,2828.65z"/>
			<g>
				<path class="st15" d="M103.7,2629.67c-44.8,0.05-89.52,10.81-127.5,30.69c-14.74,7.72-29.87,19.04-29.44,33.58
					c0.35,11.87,11.63,21.97,24.66,26.69c13.03,4.72,27.62,5.15,41.81,5.51c76.45,1.92,152.91,3.84,229.36,5.76
					c29.51,0.74,60.14,1.71,86.41,12.98c28.74,12.33,48.34,35.23,69.22,55.84c42.3,41.76,95.61,77.6,158.4,92.97
					c19.67,4.82,40.8,7.55,60.61,3.12s37.9-17.36,41.36-34.26c2.32-11.31-1.94-22.79-6.89-33.49
					c-13.44-29.05-32.47-56.3-56.12-80.36c42.86,22.65,91.45,37.69,141.61,43.82c33.25,4.06,71.52,2.81,94.51-17.69
					c20.6-18.37,21.95-48.17,8.13-70.54c-13.82-22.38-40.23-37.85-68.46-46.62c-28.23-8.77-58.51-11.59-88.44-14.34
					c-64.24-5.91-128.48-11.82-192.72-17.73c22.74-18.52,54.47-26.61,82.12-39.65s53.81-35.84,50.22-62.22
					c-2.34-17.15-17.3-31.73-35.28-40.22s-38.74-11.76-59.19-14.08c-39.09-4.44-82.61-4.87-113.51,15.64
					c-35.37,23.48-42.06,65.88-67.25,97.23c-1.75,2.18-3.79,4.43-6.77,5.24c-3.82,1.04-7.9-0.59-11.34-2.32
					c-18.15-9.16-32.75-22.4-49.37-33.41c-70.22-46.52-170.46-48.57-256.43-27.52c-21.51,5.27-43.67,12.46-57.71,27.08
					s-16.24,38.66,0.84,50.8c10.48,7.46,25.15,8.79,38.86,9.8c38.47,2.84,76.94,5.68,115.4,8.52"/>
				<g>
					<path class="st16" d="M103.84,2628.65c-37.64,0.15-75.28,7.49-109.95,22.23c-14.57,6.19-30.98,13.39-41.5,25.7
						c-9.62,11.26-8.88,25.26,2.02,35.36c12.52,11.59,30.45,14.01,46.8,14.83c20.99,1.04,42.06,1.15,63.07,1.68
						c42.67,1.07,85.34,2.14,128.02,3.21c20.63,0.52,41.28,0.9,61.9,1.59c19.35,0.65,38.95,1.86,57.71,6.96
						c17.9,4.87,33.82,13.84,48.07,25.61c13.55,11.19,25.39,24.22,37.91,36.5c24.23,23.77,51.23,44.85,80.85,61.51
						c30.66,17.24,65.09,30.86,100.18,35.17c17.41,2.14,35.76,1.47,52.03-5.66c12.44-5.45,24.66-15.09,28.55-28.63
						c4.85-16.89-5.25-34.82-12.92-49.29c-8.64-16.28-18.93-31.67-30.54-45.97c-6.03-7.43-12.43-14.53-19.12-21.37
						c-0.82,0.48-1.63,0.96-2.45,1.44c42.28,22.23,88.46,36.66,135.76,43.18c20.39,2.81,41.33,4.13,61.73,0.61
						c18.16-3.13,36.75-10.65,48.08-25.86c10.96-14.71,12.98-34.3,7.02-51.44c-6.44-18.51-21.53-32.76-37.87-42.83
						c-41-25.27-91.45-27.73-138.11-32.02c-60.12-5.53-120.23-11.06-180.35-16.59c0.15,0.55,0.29,1.1,0.44,1.64
						c31.2-25.02,73.37-29.6,105.28-53.43c12.73-9.51,25.13-22.68,27.52-39.03c2.44-16.74-7.32-31.58-20.02-41.54
						c-15.55-12.18-35.2-17.64-54.37-20.92c-20.15-3.45-40.83-5.43-61.28-5.37c-36.27,0.11-72.87,8.96-96.22,38.68
						c-10.44,13.29-17.69,28.65-25.35,43.62c-3.9,7.61-7.91,15.18-12.53,22.38c-2.49,3.89-5.13,7.72-8.07,11.29
						c-2.08,2.53-4.14,4.64-7.62,4.75c-4.02,0.13-7.54-1.87-11-3.72c-18.63-10-34.29-24.54-52.26-35.59
						c-15.28-9.4-31.79-16.76-48.84-22.31c-36.09-11.75-74.48-15.6-112.3-14.37c-19.47,0.63-38.88,2.66-58.08,5.9
						c-18.98,3.2-38.19,7.15-56.35,13.62c-15.57,5.55-32.44,13.92-41.14,28.7c-7.24,12.29-8.04,28.98,2.13,39.94
						c12.98,13.99,35.6,13.54,53.1,14.83c23.67,1.75,47.35,3.5,71.02,5.25c11.84,0.87,23.67,1.75,35.51,2.62
						c1.37,0.1,2.98-1.89,1.02-2.03c-23.08-1.7-46.16-3.41-69.24-5.11c-11.24-0.83-22.49-1.66-33.73-2.49
						c-10.05-0.74-20.23-1.13-30.18-2.85c-9.38-1.63-19.24-4.86-25.62-12.33c-5.18-6.07-7.23-14.07-6.45-21.93
						c1.85-18.56,17.18-30.77,33-38.16c17.23-8.04,36.35-12.2,54.92-15.86c18.7-3.68,37.64-6.19,56.66-7.41
						c37.49-2.41,75.68,0.05,112.01,9.99c17.2,4.71,33.97,11.11,49.69,19.54c17.2,9.22,32.07,21.61,48.11,32.59
						c7.07,4.84,15.26,11.02,23.74,12.99c7.78,1.81,12.37-3.08,16.68-8.81c9.73-12.94,16.74-27.6,24.07-41.95
						c7.54-14.77,15.66-29.52,27.51-41.33c13.35-13.3,30.61-21.11,48.89-24.93c19.19-4.01,39.09-4.02,58.57-2.62
						c20.15,1.45,40.83,3.65,60.23,9.5c17.97,5.42,36.57,15.17,46.16,32.07c8.92,15.73,4.74,33.16-6.27,46.6
						c-24.62,30.03-65.74,37.04-98.74,53.95c-7.79,3.99-15.25,8.58-22.08,14.06c-0.75,0.6-0.6,1.55,0.44,1.64
						c50.1,4.61,100.19,9.22,150.29,13.83c24.88,2.29,49.84,4.2,74.65,7.16c23.15,2.76,46.43,6.8,68.23,15.34
						c34.45,13.5,73.43,44.28,62.99,86.18c-10.79,43.32-65.09,46.64-101.26,43.15c-51.37-4.96-102.25-20.37-147.9-44.37
						c-0.74-0.39-3.51,0.36-2.45,1.44c12.54,12.83,24.03,26.67,34.1,41.52c10.02,14.78,19.41,30.74,25.68,47.51
						c3.15,8.43,5.11,17.74,2.53,26.59c-2.2,7.57-7.4,13.92-13.48,18.78c-14.21,11.36-32.94,14.81-50.73,14.23
						c-18.57-0.61-36.97-5.12-54.59-10.8c-16.21-5.22-31.96-11.86-47.07-19.71c-29.49-15.32-56.58-35.07-80.95-57.62
						c-23.45-21.7-43.9-47.8-72.85-62.59c-31.76-16.23-68.81-15.74-103.58-16.61c-40-1-80.01-2.01-120.01-3.01
						c-20.15-0.51-40.3-1.01-60.45-1.52c-19.55-0.49-39.35-0.11-58.83-1.94c-16.16-1.51-37.65-6.74-44.37-23.73
						c-6.48-16.4,10.01-29.42,22.43-36.64c31.28-18.2,68.17-28.22,104.01-31.73c9.13-0.89,18.29-1.33,27.46-1.36
						C105.19,2630.69,105.81,2628.64,103.84,2628.65L103.84,2628.65z"/>
				</g>
			</g>
			
				<radialGradient id="SVGID_00000093150877185009030090000009210068910206795194_" cx="2025.1464" cy="1041.6671" r="33.1536" gradientTransform="matrix(8.4898 0 0 7.1016 -17151.4258 -4365.7026)" gradientUnits="userSpaceOnUse">
				<stop  offset="0.0237" style="stop-color:#CE3F35"/>
				<stop  offset="0.2911" style="stop-color:#CA5954"/>
				<stop  offset="0.6263" style="stop-color:#D69DA8"/>
				<stop  offset="0.9749" style="stop-color:#C2A6B4"/>
			</radialGradient>
			
				<ellipse style="fill:url(#SVGID_00000093150877185009030090000009210068910206795194_);" cx="41.76" cy="3031.84" rx="95" ry="74.46"/>
			
				<radialGradient id="SVGID_00000092438618634614089560000003873804936229937084_" cx="2058.498" cy="1033.3851" r="45.2611" gradientTransform="matrix(8.4898 0 0 7.1016 -17151.4258 -4365.7026)" gradientUnits="userSpaceOnUse">
				<stop  offset="0.0237" style="stop-color:#C8423D"/>
				<stop  offset="0.4109" style="stop-color:#BB524F"/>
				<stop  offset="0.6039" style="stop-color:#AB5B5A"/>
				<stop  offset="0.9212" style="stop-color:#AD5655"/>
			</radialGradient>
			
				<ellipse style="fill:url(#SVGID_00000092438618634614089560000003873804936229937084_);" cx="338.37" cy="2976.78" rx="140.46" ry="109.5"/>
		</g>
	</g>
	<g>
		<g>
			<path d="M7519.93,1487.71c0.59,0,1.62-0.19,1.91-0.79c0.28-0.58-0.24-0.86-0.79-0.86c-0.58,0-1.62,0.19-1.91,0.79
				C7518.86,1487.44,7519.38,1487.71,7519.93,1487.71L7519.93,1487.71z"/>
		</g>
	</g>
	<g>
		<g>
			<path class="st20" d="M1454.71,2056.21c1.11,0,2.46-0.43,3.39-1.02c0.75-0.48,0.67-0.83-0.25-0.83c-1.11,0-2.46,0.43-3.39,1.02
				C1453.71,2055.85,1453.78,2056.21,1454.71,2056.21L1454.71,2056.21z"/>
		</g>
	</g>
	<g>
		<g>
			<path class="st20" d="M1901.1,2762.58c1.23,0,2.44-1.27,2.49-2.46c0.05-1.37-1.11-1.95-2.29-1.95c-1.23,0-2.44,1.27-2.49,2.46
				C1898.76,2762,1899.92,2762.58,1901.1,2762.58L1901.1,2762.58z"/>
		</g>
	</g>
	<g>
		<g>
			<path class="st20" d="M2908.4,2214.46c1.09,0-0.43-0.9-0.64-1c-1.03-0.47-2.2-0.78-3.34-0.78c-1.09,0,0.43,0.9,0.64,1
				C2906.1,2214.14,2907.26,2214.46,2908.4,2214.46L2908.4,2214.46z"/>
		</g>
	</g>
	<g>
		<g>
			<path class="st20" d="M2502.17,2215.24c1.05,0,2.61-0.25,2.95-1.47c0.31-1.1-0.98-1.89-1.94-1.89c-1.05,0-2.61,0.25-2.95,1.47
				C2499.93,2214.46,2501.22,2215.24,2502.17,2215.24L2502.17,2215.24z"/>
		</g>
	</g>
	<g>
		<g>
			<path class="st20" d="M2857.74,2971.24c1.22,0,1.58-1.39,1.25-2.34c-0.39-1.17-1.53-2.1-2.78-2.1c-1.22,0-1.58,1.39-1.25,2.34
				C2855.35,2970.31,2856.49,2971.24,2857.74,2971.24L2857.74,2971.24z"/>
		</g>
	</g>
	<g>
		<g>
			<path class="st20" d="M4207.65,2719.15c1.18,0,2.59-0.65,2.94-1.86c0.34-1.15-0.66-2.03-1.76-2.03c-1.18,0-2.59,0.65-2.94,1.86
				C4205.55,2718.27,4206.55,2719.15,4207.65,2719.15L4207.65,2719.15z"/>
		</g>
	</g>
	<g>
		<g>
			<path class="st20" d="M5113.62,2178.92c1.03,0,2.62-0.31,3.2-1.27c0.57-0.94-0.46-1.38-1.28-1.38c-1.03,0-2.62,0.31-3.2,1.27
				C5111.76,2178.47,5112.8,2178.92,5113.62,2178.92L5113.62,2178.92z"/>
		</g>
	</g>
	<g>
		<g>
			<path class="st20" d="M6128.04,2445.63c1.06,0,2.47-0.63,2.48-1.86c0.01-1.24-1.5-1.81-2.52-1.81c-1.06,0-2.47,0.63-2.48,1.86
				C6125.52,2445.07,6127.03,2445.63,6128.04,2445.63L6128.04,2445.63z"/>
		</g>
	</g>
	<g>
		<g>
			<path class="st20" d="M5750.3,3007.06c1.08,0,0.24-1.88,0-2.26c-0.54-0.87-1.48-1.86-2.58-1.86c-1.08,0-0.24,1.88,0,2.26
				C5748.26,3006.07,5749.2,3007.06,5750.3,3007.06L5750.3,3007.06z"/>
		</g>
	</g>
	<g>
		<g>
			<path class="st20" d="M5363.2,2732.77c0.91,0,1.12-0.46,0.42-1.07c-0.79-0.7-2.23-1.28-3.3-1.28c-0.91,0-1.12,0.46-0.42,1.07
				C5360.7,2732.19,5362.13,2732.77,5363.2,2732.77L5363.2,2732.77z"/>
		</g>
	</g>
	<g>
		<g>
			<path class="st20" d="M5889.4,2143.71c1.16,0,2.33-1.02,2.15-2.23c-0.2-1.33-1.6-1.95-2.79-1.95c-1.16,0-2.33,1.02-2.15,2.23
				C5886.81,2143.09,5888.21,2143.71,5889.4,2143.71L5889.4,2143.71z"/>
		</g>
	</g>
	<g>
		<g>
			<path class="st20" d="M6517.16,2531.66c0.74,0-0.91-1.55-1-1.62c-0.71-0.58-1.78-1.43-2.76-1.43c-0.74,0,0.91,1.55,1,1.62
				C6515.11,2530.81,6516.18,2531.66,6517.16,2531.66L6517.16,2531.66z"/>
		</g>
	</g>
	<g>
		<g>
			<path class="st20" d="M4775.32,2682.45c1.12,0,2.49-0.44,3.32-1.21c0.67-0.62,0.55-1.23-0.45-1.23c-1.12,0-2.49,0.44-3.32,1.21
				C4774.2,2681.83,4774.32,2682.45,4775.32,2682.45L4775.32,2682.45z"/>
		</g>
	</g>
	<g>
		<g>
			<path class="st20" d="M4314.15,2307.65c0.91,0,2.63,0.01,3.37-0.59c0.7-0.57-0.51-0.52-0.97-0.52c-0.91,0-2.63-0.01-3.37,0.59
				C4312.48,2307.7,4313.69,2307.65,4314.15,2307.65L4314.15,2307.65z"/>
		</g>
	</g>
	<g>
		<g>
			<path class="st20" d="M3121.04,2481.77c1.08,0,2.18-0.63,1.94-1.86c-0.22-1.16-1.6-2.14-2.75-2.14c-1.08,0-2.18,0.63-1.94,1.86
				C3118.51,2480.8,3119.88,2481.77,3121.04,2481.77L3121.04,2481.77z"/>
		</g>
	</g>
	<g>
		<g>
			<path class="st20" d="M3804.26,2100.74c2.97,0,3.74-4.59,0.5-4.59C3801.78,2096.15,3801.01,2100.74,3804.26,2100.74
				L3804.26,2100.74z"/>
		</g>
	</g>
	<g>
		<g>
			<path class="st20" d="M1893.85,2172.66c1.74,0-0.13-4.52-1.78-4.52C1890.33,2168.13,1892.2,2172.66,1893.85,2172.66
				L1893.85,2172.66z"/>
		</g>
	</g>
	<g>
		<g>
			<path class="st20" d="M2347.38,2653.92c0.98,0,1.29-0.62,0.68-1.39c-0.66-0.85-2.09-1.55-3.18-1.55c-0.98,0-1.29,0.62-0.68,1.39
				C2344.86,2653.22,2346.29,2653.92,2347.38,2653.92L2347.38,2653.92z"/>
		</g>
	</g>
	<g>
		<g>
			<path class="st21" d="M5288.28,2237.02c1.08,0,2.02-0.89,1.66-1.99c-0.39-1.2-1.87-1.75-3.01-1.75c-1.08,0-2.02,0.89-1.66,1.99
				C5285.66,2236.47,5287.14,2237.02,5288.28,2237.02L5288.28,2237.02z"/>
		</g>
	</g>
	<g>
		<g>
			<path class="st21" d="M5231.24,2604.12c0.66,0-0.39-1.59-0.51-1.79c-0.32-0.5-1.35-2.27-2.1-2.27c-0.66,0,0.39,1.59,0.51,1.79
				C5229.46,2602.34,5230.49,2604.12,5231.24,2604.12L5231.24,2604.12z"/>
		</g>
	</g>
	<g>
		<g>
			<path class="st21" d="M3664.41,2999.92c1.16,0,2.46-0.5,2.49-1.86c0.02-1.19-1.24-2.38-2.43-2.38c-1.16,0-2.46,0.5-2.49,1.86
				C3661.96,2998.74,3663.22,2999.92,3664.41,2999.92L3664.41,2999.92z"/>
		</g>
	</g>
	<g>
		<g>
			<path class="st21" d="M4011.45,2445.85c2.38,0-0.22-4.1-1.91-4.1C4007.16,2441.75,4009.76,2445.85,4011.45,2445.85
				L4011.45,2445.85z"/>
		</g>
	</g>
	<g>
		<g>
			<path class="st21" d="M3499.29,2445.48c1.02,0,2.59-0.53,2.81-1.69c0.23-1.18-1.17-1.66-2.09-1.66c-1.02,0-2.59,0.53-2.81,1.69
				C3496.97,2444.99,3498.37,2445.48,3499.29,2445.48L3499.29,2445.48z"/>
		</g>
	</g>
	<g>
		<g>
			<path class="st21" d="M3540.77,1949.06c0.99,0,2.5-0.36,2.58-1.59c0.07-1.17-1.47-1.82-2.42-1.82c-0.99,0-2.5,0.36-2.58,1.59
				C3538.27,1948.41,3539.82,1949.06,3540.77,1949.06L3540.77,1949.06z"/>
		</g>
	</g>
	<g>
		<g>
			<path class="st21" d="M1966.21,2445.17c1.01,0,2.62-0.45,3.15-1.41c0.54-0.98-0.53-1.33-1.34-1.33c-1.01,0-2.62,0.45-3.15,1.41
				C1964.33,2444.82,1965.41,2445.17,1966.21,2445.17L1966.21,2445.17z"/>
		</g>
	</g>
	<g>
		<g>
			<path class="st21" d="M1604.56,2509.39c0.49,0,2.5,0.04,2.52-0.77c0.02-0.79-2.07-0.89-2.48-0.89c-0.49,0-2.5-0.04-2.52,0.77
				C1602.06,2509.28,1604.16,2509.39,1604.56,2509.39L1604.56,2509.39z"/>
		</g>
	</g>
	<g>
		<g>
			<path class="st21" d="M1498.4,2827.36c1.21,0-0.56-4.47-1.87-4.47C1495.32,2822.89,1497.09,2827.36,1498.4,2827.36
				L1498.4,2827.36z"/>
		</g>
	</g>
	<g>
		<g>
			<path class="st21" d="M1307.45,2236.35c0.84,0,2.63-0.22,2.95-1.2c0.33-1-1.3-1.2-1.91-1.2c-0.84,0-2.63,0.22-2.95,1.2
				C1305.2,2236.15,1306.84,2236.35,1307.45,2236.35L1307.45,2236.35z"/>
		</g>
	</g>
	<g>
		<g>
			<path class="st21" d="M211.65,2085.98c1.13,0,2.55-0.92,2.8-2.06c0.27-1.23-0.81-1.78-1.86-1.78c-1.13,0-2.55,0.92-2.8,2.06
				C209.52,2085.43,210.6,2085.98,211.65,2085.98L211.65,2085.98z"/>
		</g>
	</g>
	<g>
		<g>
			<path class="st21" d="M1860.71,2244.17c2.75,0,5.49,0,8.24,0c1,0,2.08-0.87,1.62-1.94c-0.5-1.17-1.83-1.71-3.03-1.71
				c-2.75,0-5.49,0-8.24,0c-1,0-2.08,0.87-1.62,1.94C1858.18,2243.63,1859.51,2244.17,1860.71,2244.17L1860.71,2244.17z"/>
		</g>
	</g>
	<g>
		<g>
			<path class="st21" d="M3565.03,2013.51c0.94,0,2.61-0.17,2.97-1.26c0.34-1.05-1.13-1.54-1.9-1.54c-0.94,0-2.61,0.17-2.97,1.26
				C3562.79,2013.02,3564.26,2013.51,3565.03,2013.51L3565.03,2013.51z"/>
		</g>
	</g>
	<g>
		<g>
			<path class="st21" d="M5104.31,2430.72c1.01,0,2.05-0.62,2.88-1.15c0.15-0.1,1.78-1.46,1.18-1.46c-1.01,0-2.05,0.62-2.88,1.15
				C5105.33,2429.36,5103.71,2430.72,5104.31,2430.72L5104.31,2430.72z"/>
		</g>
	</g>
	<g>
		<g>
			<path class="st21" d="M4454.29,2078.6c1.19,0,2.53-0.46,3.19-1.53c0.51-0.83,0.21-1.94-0.93-1.94c-1.19,0-2.53,0.46-3.19,1.53
				C4452.85,2077.49,4453.15,2078.6,4454.29,2078.6L4454.29,2078.6z"/>
		</g>
	</g>
	<g>
		<g>
			<path class="st21" d="M4619.57,2481.44c1.05,0,2.58-0.82,2.91-1.87c0.38-1.16-0.72-1.46-1.63-1.46c-1.05,0-2.57,0.82-2.91,1.87
				C4617.56,2481.13,4618.66,2481.44,4619.57,2481.44L4619.57,2481.44z"/>
		</g>
	</g>
	<g class="st22">
		<g>
			<path class="st2" d="M4801.48,1884.49c1.07,0,2.5-0.64,2.5-1.89c0-1.25-1.44-1.88-2.5-1.88c-1.07,0-2.5,0.64-2.5,1.89
				C4798.98,1883.85,4800.42,1884.49,4801.48,1884.49L4801.48,1884.49z"/>
		</g>
	</g>
	<g class="st22">
		<g>
			<path class="st2" d="M4669.93,2561.05c3.25,0,2.19-4.26-0.57-4.26C4666.11,2556.79,4667.17,2561.05,4669.93,2561.05
				L4669.93,2561.05z"/>
		</g>
	</g>
	<g class="st22">
		<g>
			<path class="st2" d="M3600.59,2552.38c1.04,0-0.61-0.69-0.76-0.74c-1.08-0.35-2.24-0.57-3.38-0.57c-1.04,0,0.61,0.69,0.76,0.74
				C3598.3,2552.15,3599.45,2552.38,3600.59,2552.38L3600.59,2552.38z"/>
		</g>
	</g>
	<g class="st22">
		<g>
			<path class="st2" d="M2973.7,2876.88c1.05,0,1.18-0.9,0.57-1.56c-0.81-0.89-2.17-1.21-3.32-1.21c-1.05,0-1.18,0.9-0.57,1.56
				C2971.19,2876.55,2972.55,2876.88,2973.7,2876.88L2973.7,2876.88z"/>
		</g>
	</g>
	<g class="st22">
		<g>
			<path class="st2" d="M2792.6,2359.08c1.17,0,0.45-1.38,0.05-1.81c-0.8-0.85-1.96-1.43-3.14-1.43c-1.17,0-0.45,1.38-0.05,1.81
				C2790.27,2358.51,2791.43,2359.08,2792.6,2359.08L2792.6,2359.08z"/>
		</g>
	</g>
	<g class="st22">
		<g>
			<path class="st2" d="M3159.85,2027.87c0.84,0,2.03-1.04,2.69-1.5c0.22-0.15,1.56-1.24,1.28-1.24c-0.84,0-2.03,1.04-2.69,1.5
				C3160.91,2026.78,3159.57,2027.87,3159.85,2027.87L3159.85,2027.87z"/>
		</g>
	</g>
	<g class="st22">
		<g>
			<path class="st2" d="M2297.82,1935.11c1.42,0-0.71-4.3-2.26-4.3C2294.14,1930.82,2296.28,1935.11,2297.82,1935.11
				L2297.82,1935.11z"/>
		</g>
	</g>
	<g class="st22">
		<g>
			<path class="st2" d="M2212.83,2811.91c1.13,0,2.48-0.38,3.35-1.13c0.68-0.58,0.59-1.22-0.41-1.22c-1.13,0-2.48,0.38-3.35,1.13
				C2211.74,2811.28,2211.82,2811.91,2212.83,2811.91L2212.83,2811.91z"/>
		</g>
	</g>
	<g class="st22">
		<g>
			<path class="st2" d="M2519.75,2676.44c1.29,0,1.73-1.72,1.49-2.71c-0.32-1.31-1.38-2.09-2.68-2.09c-1.29,0-1.73,1.72-1.49,2.71
				C2517.39,2675.65,2518.45,2676.44,2519.75,2676.44L2519.75,2676.44z"/>
		</g>
	</g>
	<g class="st22">
		<g>
			<path class="st2" d="M3015.24,2523.46c0.88,0,0.84-0.33,0.08-0.59c-1.11-0.37-2.35-0.45-3.51-0.45c-0.88,0-0.84,0.33-0.08,0.59
				C3012.84,2523.37,3014.08,2523.46,3015.24,2523.46L3015.24,2523.46z"/>
		</g>
	</g>
	<g class="st22">
		<g>
			<path class="st2" d="M5568.4,2748.19c1.24,0,1.95-1.39,1.64-2.47c-0.39-1.32-1.67-1.95-2.95-1.95c-1.24,0-1.95,1.39-1.64,2.47
				C5565.84,2747.56,5567.12,2748.19,5568.4,2748.19L5568.4,2748.19z"/>
		</g>
	</g>
	<g class="st22">
		<g>
			<path class="st2" d="M6780.33,2797.61c0.93,0,1.16-0.5,0.49-1.17c-0.75-0.74-2.19-1.37-3.26-1.37c-0.93,0-1.16,0.5-0.49,1.17
				C6777.82,2796.99,6779.26,2797.61,6780.33,2797.61L6780.33,2797.61z"/>
		</g>
	</g>
	<g class="st22">
		<g>
			<path class="st2" d="M6811.26,2163.82c0.57,0,2.78,0.13,3.06-0.55c0.27-0.66-1.45-0.69-1.77-0.69c-0.57,0-2.78-0.13-3.06,0.55
				C6809.21,2163.79,6810.93,2163.82,6811.26,2163.82L6811.26,2163.82z"/>
		</g>
	</g>
	<g class="st22">
		<g>
			<path class="st2" d="M6491.39,2754.65c0.85,0,1.9-0.36,1.42-1.39c-0.45-0.98-2.1-1.55-3.08-1.55c-0.85,0-1.9,0.36-1.42,1.39
				C6488.76,2754.07,6490.41,2754.65,6491.39,2754.65L6491.39,2754.65z"/>
		</g>
	</g>
	<g class="st22">
		<g>
			<path class="st2" d="M6119.74,2438.75c1.19,0,2.52-0.77,2.55-2.09c0.03-1.28-1.25-2.2-2.45-2.2c-1.19,0-2.52,0.77-2.55,2.09
				C6117.26,2437.83,6118.54,2438.75,6119.74,2438.75L6119.74,2438.75z"/>
		</g>
	</g>
	<g class="st22">
		<g>
			<path class="st2" d="M5897.36,2431.56c1.2,0,2.48-0.91,2.46-2.2c-0.02-1.32-1.34-2.11-2.54-2.11c-1.2,0-2.48,0.91-2.46,2.2
				C5894.85,2430.78,5896.16,2431.56,5897.36,2431.56L5897.36,2431.56z"/>
		</g>
	</g>
	<g class="st22">
		<g>
			<path class="st2" d="M4580.33,2978.24c0.62,0-0.43-1.57-0.56-1.76c-0.31-0.48-1.36-2.29-2.08-2.29c-0.62,0,0.43,1.57,0.56,1.76
				C4578.56,2976.43,4579.61,2978.24,4580.33,2978.24L4580.33,2978.24z"/>
		</g>
	</g>
	<g class="st22">
		<g>
			<path class="st2" d="M4925.44,3057.14c1.02,0,2.28-0.64,2.09-1.82c-0.19-1.21-1.8-1.73-2.82-1.73c-1.02,0-2.27,0.64-2.09,1.82
				C4922.81,3056.61,4924.41,3057.14,4925.44,3057.14L4925.44,3057.14z"/>
		</g>
	</g>
	<g class="st22">
		<g>
			<path class="st2" d="M5038.53,2739.88c1.12,0,2.31-0.5,3.26-1.05c0.3-0.18,1.6-1.13,0.52-1.13c-1.12,0-2.31,0.5-3.26,1.05
				C5038.75,2738.92,5037.45,2739.88,5038.53,2739.88L5038.53,2739.88z"/>
		</g>
	</g>
	<g class="st22">
		<g>
			<path class="st2" d="M4185.41,2890.98c1.09,0-0.24-0.99-0.51-1.14c-0.94-0.55-2.15-1.05-3.26-1.05c-1.09,0,0.24,0.99,0.51,1.14
				C4183.09,2890.48,4184.29,2890.98,4185.41,2890.98L4185.41,2890.98z"/>
		</g>
	</g>
	<g class="st22">
		<g>
			<path class="st2" d="M3509.46,2675.87c0.8,0-0.53-1.67-0.65-1.81c-0.52-0.61-1.58-1.85-2.5-1.85c-0.8,0,0.53,1.67,0.65,1.81
				C3507.49,2674.63,3508.54,2675.87,3509.46,2675.87L3509.46,2675.87z"/>
		</g>
	</g>
</g>
</svg>
